name C:\Users\u0101727\Documents\MyRepositories\upper-imu-dc\Results\main_tracking\Case_46\FLX02_linearAccelerations_bodyFrame.mot
datacolumns 4
datarows 117
range 5.38000000 6.54000000
endheader 
time	radius_imu_x	radius_imu_y	radius_imu_z	
          5.38000000	         -5.09920122	         -0.97433050	          7.70473813	
          5.39000000	         -5.08688062	         -0.86205342	          7.73288454	
          5.40000000	         -5.08448449	         -0.74645863	          7.76518420	
          5.41000000	         -5.09200271	         -0.62787414	          7.80069035	
          5.42000000	         -5.10915834	         -0.50680160	          7.83805487	
          5.43000000	         -5.13528411	         -0.38389282	          7.87580606	
          5.44000000	         -5.16920366	         -0.25990880	          7.91266906	
          5.45000000	         -5.20916528	         -0.13565308	          7.94784396	
          5.46000000	         -5.25285728	         -0.01188218	          7.98116963	
          5.47000000	         -5.29751166	          0.11078943	          8.01314052	
          5.48000000	         -5.34008736	          0.23196251	          8.04478979	
          5.49000000	         -5.37751557	          0.35148262	          8.07748027	
          5.50000000	         -5.40697061	          0.46942011	          8.11265474	
          5.51000000	         -5.42610821	          0.58600869	          8.15159994	
          5.52000000	         -5.43320477	          0.70155748	          8.19526998	
          5.53000000	         -5.42716340	          0.81636352	          8.24418397	
          5.54000000	         -5.40743487	          0.93065503	          8.29838010	
          5.55000000	         -5.37395670	          1.04457377	          8.35739643	
          5.56000000	         -5.32717972	          1.15817260	          8.42025753	
          5.57000000	         -5.26816821	          1.27139847	          8.48546709	
          5.58000000	         -5.19868845	          1.38406232	          8.55104505	
          5.59000000	         -5.12119378	          1.49582108	          8.61466791	
          5.60000000	         -5.03866991	          1.60618825	          8.67392703	
          5.61000000	         -4.95438432	          1.71457815	          8.72662997	
          5.62000000	         -4.87162438	          1.82038666	          8.77101894	
          5.63000000	         -4.79348343	          1.92309966	          8.80582573	
          5.64000000	         -4.72268669	          2.02240029	          8.83018781	
          5.65000000	         -4.66139115	          2.11823310	          8.84353643	
          5.66000000	         -4.61091019	          2.21080181	          8.84556288	
          5.67000000	         -4.57144284	          2.30051379	          8.83626120	
          5.68000000	         -4.54197409	          2.38790473	          8.81594747	
          5.69000000	         -4.52040660	          2.47356967	          8.78517874	
          5.70000000	         -4.50385532	          2.55811405	          8.74459067	
          5.71000000	         -4.48903531	          2.64213107	          8.69474141	
          5.72000000	         -4.47270086	          2.72619982	          8.63605478	
          5.73000000	         -4.45208228	          2.81088591	          8.56890739	
          5.74000000	         -4.42525825	          2.89672653	          8.49383281	
          5.75000000	         -4.39141149	          2.98419558	          8.41176130	
          5.76000000	         -4.35093061	          3.07365947	          8.32420273	
          5.77000000	         -4.30533291	          3.16534128	          8.23331688	
          5.78000000	         -4.25700137	          3.25930612	          8.14186534	
          5.79000000	         -4.20876901	          3.35546940	          8.05306278	
          5.80000000	         -4.16344345	          3.45362249	          7.97033933	
          5.81000000	         -4.12338545	          3.55347027	          7.89702998	
          5.82000000	         -4.09020157	          3.65467391	          7.83604024	
          5.83000000	         -4.06454106	          3.75689097	          7.78956811	
          5.84000000	         -4.04597874	          3.85981274	          7.75895386	
          5.85000000	         -4.03302477	          3.96320403	          7.74466209	
          5.86000000	         -4.02331483	          4.06693964	          7.74632112	
          5.87000000	         -4.01395516	          4.17102280	          7.76273037	
          5.88000000	         -4.00192728	          4.27557449	          7.79182338	
          5.89000000	         -3.98444590	          4.38079502	          7.83067154	
          5.90000000	         -3.95919889	          4.48691146	          7.87562539	
          5.91000000	         -3.92444987	          4.59413088	          7.92260298	
          5.92000000	         -3.87902787	          4.70261576	          7.96744215	
          5.93000000	         -3.82225876	          4.81248286	          8.00621623	
          5.94000000	         -3.75389991	          4.92381047	          8.03546174	
          5.95000000	         -3.67412113	          5.03663523	          8.05232987	
          5.96000000	         -3.58354789	          5.15092843	          8.05470049	
          5.97000000	         -3.48334908	          5.26655497	          8.04128277	
          5.98000000	         -3.37531083	          5.38323211	          8.01170729	
          5.99000000	         -3.26180584	          5.50051417	          7.96661831	
          6.00000000	         -3.14558698	          5.61782562	          7.90778060	
          6.01000000	         -3.02941802	          5.73454579	          7.83818253	
          6.02000000	         -2.91565529	          5.85012130	          7.76205026	
          6.03000000	         -2.80594599	          5.96416188	          7.68464482	
          6.04000000	         -2.70117766	          6.07647805	          7.61174919	
          6.05000000	         -2.60170108	          6.18704363	          7.54887922	
          6.06000000	         -2.50771340	          6.29589771	          7.50040210	
          6.07000000	         -2.41960352	          6.40302725	          7.46882497	
          6.08000000	         -2.33812290	          6.50828011	          7.45444572	
          6.09000000	         -2.26434722	          6.61133878	          7.45539951	
          6.10000000	         -2.19951868	          6.71175126	          7.46797128	
          6.11000000	         -2.14484828	          6.80899368	          7.48702893	
          6.12000000	         -2.10131919	          6.90254674	          7.50654736	
          6.13000000	         -2.06947115	          6.99197724	          7.52024630	
          6.14000000	         -2.04923166	          7.07701377	          7.52231604	
          6.15000000	         -2.03984882	          7.15759728	          7.50808996	
          6.16000000	         -2.03999278	          7.23389426	          7.47450406	
          6.17000000	         -2.04804388	          7.30626454	          7.42023845	
          6.18000000	         -2.06250446	          7.37518374	          7.34555371	
          6.19000000	         -2.08238967	          7.44114482	          7.25194749	
          6.20000000	         -2.10744155	          7.50457959	          7.14179438	
          6.21000000	         -2.13809643	          7.56582220	          7.01807090	
          6.22000000	         -2.17525805	          7.62510788	          6.88415375	
          6.23000000	         -2.21999354	          7.68258926	          6.74361453	
          6.24000000	         -2.27323742	          7.73835990	          6.59997750	
          6.25000000	         -2.33552442	          7.79248325	          6.45650783	
          6.26000000	         -2.40674646	          7.84502903	          6.31612531	
          6.27000000	         -2.48594270	          7.89611876	          6.18144136	
          6.28000000	         -2.57115717	          7.94597431	          6.05479924	
          6.29000000	         -2.65941204	          7.99495538	          5.93819255	
          6.30000000	         -2.74683230	          8.04357325	          5.83303889	
          6.31000000	         -2.82892259	          8.09247435	          5.73990036	
          6.32000000	         -2.90095311	          8.14239518	          5.65830258	
          6.33000000	         -2.95838453	          8.19409587	          5.58677728	
          6.34000000	         -2.99727536	          8.24827940	          5.52314401	
          6.35000000	         -3.01464387	          8.30549979	          5.46493459	
          6.36000000	         -3.00875830	          8.36606897	          5.40983282	
          6.37000000	         -2.97931047	          8.42998628	          5.35602878	
          6.38000000	         -2.92743226	          8.49692345	          5.30240789	
          6.39000000	         -2.85556327	          8.56628251	          5.24850343	
          6.40000000	         -2.76722416	          8.63730139	          5.19419493	
          6.41000000	         -2.66672753	          8.70914720	          5.13929208	
          6.42000000	         -2.55881419	          8.78095812	          5.08327971	
          6.43000000	         -2.44821748	          8.85184778	          5.02542035	
          6.44000000	         -2.33923575	          8.92090836	          4.96515686	
          6.45000000	         -2.23541933	          8.98723654	          4.90260456	
          6.46000000	         -2.13944038	          9.04998832	          4.83893805	
          6.47000000	         -2.05316096	          9.10844301	          4.77653479	
          6.48000000	         -1.97785768	          9.16204424	          4.71878208	
          6.49000000	         -1.91450305	          9.21040292	          4.66951216	
          6.50000000	         -1.86396917	          9.25327055	          4.63214473	
          6.51000000	         -1.82705273	          9.29051091	          4.60875433	
          6.52000000	         -1.80430829	          9.32209794	          4.59929582	
          6.53000000	         -1.79578404	          9.34813965	          4.60116870	
          6.54000000	         -1.80082557	          9.36890695	          4.60927295	
